<svg id="svg" version="1.1" width="500" height="500" xmlns="http://www.w3.org/2000/svg" xmlns:xlink="http://www.w3.org/1999/xlink" style="display: block;"><g id="svgg"><path id="path0" d="M0.000 52.800 L 0.000 105.600 4.600 105.625 C 9.450 105.652,12.000 106.864,12.000 109.141 C 12.000 111.418,10.434 113.600,8.800 113.600 C 7.951 113.600,6.871 114.320,6.400 115.200 C 5.805 116.313,4.639 116.839,2.572 116.928 C -0.380 117.055,-0.382 117.058,2.199 117.379 C 5.181 117.749,7.613 120.800,4.926 120.800 C 4.084 120.800,2.948 120.260,2.400 119.600 C 1.852 118.940,1.018 118.400,0.547 118.400 C 0.075 118.400,0.919 119.308,2.423 120.417 C 3.927 121.526,5.669 122.238,6.294 121.998 C 7.767 121.433,10.400 123.822,10.400 125.724 C 10.400 127.653,11.396 127.594,13.242 125.554 C 14.557 124.100,15.311 123.970,19.705 124.441 C 24.208 124.923,24.778 124.814,25.732 123.287 C 26.311 122.359,27.462 121.600,28.290 121.600 C 29.538 121.600,29.625 121.806,28.800 122.800 C 27.367 124.527,30.189 124.439,32.114 122.697 C 33.299 121.625,34.125 121.539,36.777 122.212 C 38.593 122.673,40.000 122.718,40.000 122.315 C 40.000 121.922,40.548 121.600,41.217 121.600 C 41.887 121.600,42.844 120.700,43.346 119.600 C 43.916 118.348,44.916 117.600,46.019 117.600 C 46.989 117.600,48.714 116.668,49.853 115.529 C 52.042 113.339,53.600 113.520,53.600 115.964 C 53.600 117.231,54.153 117.397,57.600 117.162 C 59.800 117.013,61.600 117.230,61.600 117.645 C 61.600 118.060,62.212 118.400,62.960 118.400 C 64.018 118.400,64.107 118.613,63.360 119.360 C 62.120 120.600,62.137 121.432,63.400 121.385 C 65.984 121.289,67.251 121.670,66.796 122.407 C 66.097 123.538,67.155 126.522,68.058 125.964 C 68.466 125.712,68.800 125.899,68.800 126.381 C 68.800 126.978,69.371 126.939,70.600 126.258 C 71.590 125.709,72.618 125.319,72.885 125.392 C 73.152 125.464,73.745 124.731,74.204 123.762 C 76.179 119.586,77.600 116.108,77.600 115.452 C 77.600 114.534,81.402 112.360,84.148 111.706 C 86.761 111.085,90.779 114.361,91.631 117.808 C 91.932 119.022,92.497 120.213,92.889 120.455 C 93.280 120.697,93.600 121.549,93.600 122.349 C 93.600 124.650,95.849 126.149,96.512 124.290 C 96.804 123.471,97.557 122.200,98.185 121.467 C 99.056 120.450,99.121 119.746,98.457 118.507 C 95.437 112.864,108.272 108.025,113.004 113.023 C 115.468 115.625,117.538 116.294,118.154 114.687 C 118.448 113.921,118.113 113.103,117.324 112.661 C 115.267 111.510,115.599 107.494,117.800 106.904 C 121.915 105.801,123.678 106.405,128.000 110.400 C 133.055 115.072,132.842 115.033,138.006 112.243 C 141.637 110.281,144.279 109.777,152.400 109.495 C 155.150 109.400,162.721 110.858,164.501 111.825 C 165.968 112.623,166.718 112.348,169.962 109.821 C 173.031 107.430,173.981 107.053,175.132 107.772 C 176.918 108.887,178.798 107.790,178.122 106.028 C 177.719 104.978,177.949 104.803,179.205 105.202 C 180.118 105.491,180.800 105.343,180.800 104.854 C 180.800 102.956,183.907 104.093,184.909 106.358 C 185.483 107.654,186.750 108.915,187.723 109.159 C 188.697 109.404,189.696 110.233,189.945 111.002 C 190.440 112.536,194.970 115.439,195.486 114.553 C 195.663 114.249,196.054 110.400,196.355 106.000 C 197.026 96.193,197.295 95.200,199.280 95.200 C 204.102 95.200,206.398 93.095,206.436 88.641 C 206.511 79.780,216.401 70.055,222.828 72.521 C 229.543 75.098,230.218 106.010,223.595 107.673 C 221.045 108.313,221.003 109.600,223.533 109.600 C 224.597 109.600,225.594 109.982,225.749 110.448 C 225.932 110.996,226.876 110.858,228.416 110.058 C 229.727 109.378,231.369 109.001,232.065 109.221 C 232.761 109.442,234.145 108.915,235.141 108.052 C 237.160 106.300,239.608 107.103,240.463 109.798 C 240.708 110.569,241.359 111.200,241.910 111.200 C 243.120 111.200,246.456 107.522,245.821 106.888 C 245.090 106.157,247.370 103.894,248.429 104.300 C 248.963 104.505,249.807 103.782,250.304 102.692 C 251.206 100.712,253.088 100.717,252.329 102.697 C 251.656 104.450,254.265 106.069,256.008 104.981 C 257.138 104.275,257.566 104.287,257.826 105.029 C 258.061 105.699,258.729 105.503,259.978 104.400 L 261.790 102.800 262.993 104.600 C 264.677 107.121,267.561 106.879,270.126 104.000 C 271.302 102.680,272.627 101.600,273.069 101.600 C 273.512 101.600,274.526 101.010,275.322 100.290 C 276.939 98.827,279.200 99.922,279.200 102.169 C 279.200 103.001,279.930 102.728,281.707 101.233 C 284.614 98.787,286.691 98.855,287.056 101.408 C 287.250 102.769,286.913 103.200,285.656 103.200 C 284.717 103.200,284.000 102.680,284.000 102.000 C 284.000 100.271,282.659 100.522,282.184 102.340 C 281.939 103.278,282.137 103.756,282.691 103.562 C 285.770 102.483,286.704 107.026,286.555 122.349 C 286.396 138.741,287.581 148.527,290.058 151.264 C 292.359 153.806,292.672 151.933,292.811 134.800 C 292.973 114.874,293.470 111.058,296.283 108.122 C 298.676 105.624,300.756 95.576,300.786 86.368 C 300.808 79.350,302.811 72.751,305.662 70.298 C 307.973 68.310,308.145 67.747,308.851 59.898 C 309.946 47.727,310.361 45.772,312.359 43.372 C 314.860 40.369,315.785 36.851,316.400 28.000 C 317.181 16.751,318.159 13.072,321.286 9.610 C 323.448 7.217,324.000 5.934,324.000 3.303 L 324.000 0.000 162.000 0.000 L 0.000 0.000 0.000 52.800 M380.915 3.400 C 381.150 8.336,380.066 12.599,377.929 15.139 C 376.596 16.723,375.939 18.721,375.648 22.082 C 375.422 24.677,374.870 28.058,374.419 29.595 C 373.969 31.132,373.600 33.609,373.600 35.100 C 373.600 36.591,372.919 38.934,372.086 40.306 C 371.254 41.678,370.317 44.008,370.004 45.483 C 369.692 46.959,368.784 49.659,367.986 51.483 C 366.858 54.064,366.519 57.020,366.460 64.800 L 366.385 74.800 363.139 77.610 C 356.532 83.329,357.125 96.267,363.994 96.267 C 367.486 96.267,368.719 94.657,370.032 88.382 C 370.662 85.372,371.489 82.704,371.869 82.454 C 373.734 81.229,376.439 70.288,377.242 60.719 C 377.916 52.687,378.354 51.518,381.193 50.165 C 384.101 48.778,384.785 49.035,384.831 51.533 C 384.849 52.517,385.906 53.857,387.409 54.802 C 388.985 55.793,390.423 57.669,391.182 59.722 C 392.844 64.222,394.977 66.400,397.724 66.400 L 400.000 66.400 400.000 33.200 L 400.000 0.000 390.376 -0.000 L 380.753 -0.000 380.915 3.400 M118.368 7.983 C 123.089 10.509,120.990 21.096,115.439 22.756 C 113.935 23.206,113.438 22.758,112.039 19.685 C 108.332 11.548,112.081 4.618,118.368 7.983 M348.533 9.333 C 348.240 9.627,348.013 11.877,348.029 14.333 L 348.058 18.800 350.025 16.400 C 353.261 12.452,351.893 5.973,348.533 9.333 M79.200 40.000 C 81.767 42.567,81.226 45.304,77.795 47.111 C 73.985 49.117,70.674 43.515,73.739 40.252 C 75.872 37.981,77.124 37.924,79.200 40.000 M387.507 47.954 C 388.174 48.815,388.164 48.965,387.468 48.549 C 386.956 48.241,386.375 48.442,386.178 48.995 C 385.485 50.935,384.728 48.964,385.296 46.701 C 385.655 45.270,386.010 44.860,386.243 45.606 C 386.447 46.263,387.016 47.319,387.507 47.954 M39.680 46.212 C 44.481 49.418,41.797 59.200,36.117 59.200 C 30.417 59.200,27.269 50.033,31.789 46.600 C 33.220 45.513,38.262 45.265,39.680 46.212 M156.103 67.859 C 162.127 73.241,159.243 86.400,152.040 86.400 C 146.098 86.400,144.457 83.982,145.102 76.176 C 145.977 65.599,150.092 62.488,156.103 67.859 M335.200 70.247 C 335.200 71.043,334.671 72.393,334.025 73.247 C 332.357 75.453,332.278 98.099,333.931 100.459 C 334.553 101.347,335.183 103.137,335.331 104.437 C 336.023 110.517,338.551 101.407,338.561 92.800 C 338.575 80.316,338.097 70.612,337.428 69.800 C 336.242 68.360,335.200 68.570,335.200 70.247 M396.634 79.000 C 393.679 82.148,392.991 86.018,395.179 87.189 C 398.662 89.053,400.000 87.598,400.000 81.946 C 400.000 76.191,399.600 75.841,396.634 79.000 M191.200 83.200 C 193.577 85.577,193.334 89.292,190.759 89.939 C 188.339 90.546,183.993 87.846,184.012 85.746 C 184.047 81.937,188.396 80.396,191.200 83.200 M169.896 96.168 C 172.916 97.692,174.025 103.842,171.699 106.168 C 168.014 109.853,155.858 105.040,157.303 100.469 C 159.413 93.795,162.861 92.617,169.896 96.168 M280.600 96.467 C 279.838 97.229,278.309 95.994,278.877 95.075 C 279.215 94.529,279.662 94.542,280.237 95.117 C 280.708 95.588,280.871 96.195,280.600 96.467 M142.868 98.466 C 147.222 102.686,144.506 104.966,134.800 105.239 C 131.720 105.326,128.185 105.668,126.945 105.999 C 124.700 106.598,124.692 106.587,125.215 103.501 C 126.048 98.581,126.438 97.600,127.562 97.600 C 128.143 97.600,129.648 97.042,130.909 96.360 C 134.543 94.392,139.581 95.280,142.868 98.466 M243.400 100.314 C 245.622 102.001,245.244 104.775,242.851 104.341 C 241.779 104.146,240.678 104.350,240.404 104.794 C 239.106 106.894,237.146 102.913,238.168 100.251 C 238.684 98.905,241.590 98.940,243.400 100.314 M212.842 103.478 C 210.075 106.245,212.741 113.908,216.779 114.795 C 220.187 115.544,223.898 112.056,221.518 110.341 C 220.683 109.739,220.000 108.786,220.000 108.223 C 220.000 107.661,219.678 107.200,219.285 107.200 C 218.891 107.200,217.470 106.173,216.126 104.918 C 214.417 103.321,213.431 102.889,212.842 103.478 M338.400 110.186 C 338.400 111.988,339.966 114.400,341.135 114.400 C 342.484 114.400,343.299 110.556,342.107 109.819 C 340.517 108.836,338.400 109.046,338.400 110.186 M373.050 109.800 C 372.303 110.958,372.157 139.758,372.891 140.948 C 374.395 143.381,380.159 138.349,379.768 134.945 C 379.300 130.883,377.555 124.549,376.751 124.000 C 375.754 123.318,375.616 114.091,376.577 112.357 C 377.330 111.000,377.222 110.549,375.955 109.757 C 374.043 108.564,373.845 108.566,373.050 109.800 M96.000 110.867 C 96.000 111.563,95.573 111.991,95.050 111.817 C 93.567 111.322,93.321 109.600,94.733 109.600 C 95.430 109.600,96.000 110.170,96.000 110.867 M148.000 116.979 C 148.000 117.595,148.767 118.921,149.704 119.927 L 151.408 121.756 153.461 119.702 C 155.889 117.274,155.811 117.150,151.400 116.421 C 148.752 115.984,148.000 116.107,148.000 116.979 M32.812 120.763 C 31.719 121.603,30.639 122.106,30.413 121.880 C 29.903 121.370,32.797 119.194,33.953 119.218 C 34.419 119.228,33.905 119.923,32.812 120.763 M0.000 124.400 C 0.000 128.217,0.710 128.855,2.502 126.646 C 3.447 125.482,3.433 125.375,2.400 125.883 C 1.740 126.208,2.010 125.874,3.000 125.139 C 5.304 123.431,5.265 122.869,2.762 121.728 C -0.060 120.443,0.000 120.385,0.000 124.400 M58.855 126.831 C 58.066 127.881,57.032 128.664,56.558 128.570 C 56.083 128.477,55.549 129.073,55.371 129.895 C 55.166 130.836,55.373 131.187,55.929 130.844 C 56.414 130.544,57.027 130.861,57.291 131.549 C 58.707 135.238,65.250 131.130,63.941 127.375 C 62.963 124.570,60.732 124.331,58.855 126.831 M398.004 131.980 C 397.463 134.446,397.943 136.000,399.247 136.000 C 399.661 136.000,400.000 134.560,400.000 132.800 C 400.000 129.054,398.759 128.545,398.004 131.980 M9.286 132.465 C 8.459 134.619,8.748 137.361,9.902 138.319 C 11.141 139.347,11.969 137.395,11.989 133.400 C 12.001 130.989,10.104 130.334,9.286 132.465 M288.135 358.822 C 286.751 361.861,288.387 364.000,292.095 364.000 L 295.006 364.000 293.350 360.400 C 291.477 356.330,289.538 355.743,288.135 358.822 " stroke="none" fill="#000000" fill-rule="evenodd"></path><path id="path1" d="M309.038 116.404 C 306.088 118.470,304.157 133.841,306.600 135.810 C 310.216 138.724,312.830 133.182,312.226 123.882 C 311.691 115.641,311.331 114.797,309.038 116.404 M301.103 143.357 C 300.777 143.884,300.223 150.634,299.871 158.357 C 299.519 166.081,298.954 174.020,298.615 176.000 C 298.277 177.980,298.180 182.115,298.400 185.190 L 298.800 190.779 300.553 188.541 C 303.026 185.385,304.273 178.503,303.625 171.589 C 303.052 165.475,304.042 161.486,306.676 159.302 C 308.494 157.795,308.339 154.155,306.381 152.383 C 305.491 151.578,304.206 149.002,303.525 146.659 C 302.203 142.114,302.023 141.868,301.103 143.357 M292.852 202.351 C 292.037 202.867,291.492 205.819,290.972 212.539 C 289.700 228.974,284.499 234.415,271.200 233.225 C 259.622 232.189,243.201 231.397,220.400 230.775 C 163.409 229.221,156.108 229.106,148.800 229.643 C 146.820 229.788,140.340 229.487,134.400 228.974 C 111.268 226.975,17.250 228.659,5.000 231.292 L -0.000 232.366 -0.000 316.183 L 0.000 400.000 10.000 400.000 L 20.000 400.000 20.000 397.564 C 20.000 394.866,22.996 391.260,25.364 391.108 C 30.492 390.779,32.800 392.584,32.800 396.924 L 32.800 400.000 216.400 400.000 L 400.000 400.000 400.000 388.800 L 400.000 377.600 389.000 377.599 C 382.950 377.598,368.280 377.044,356.400 376.369 C 344.520 375.693,331.913 375.369,328.385 375.649 C 323.223 376.059,320.879 375.842,316.385 374.540 C 312.238 373.338,307.343 372.798,297.371 372.443 C 287.834 372.102,283.008 371.590,280.721 370.675 C 278.431 369.759,276.108 369.513,272.673 369.825 C 263.981 370.613,259.849 367.302,261.566 360.926 C 262.896 355.986,265.153 355.329,274.200 357.248 C 277.593 357.968,277.873 354.839,274.719 351.441 C 272.291 348.825,272.261 343.249,274.651 338.459 C 276.495 334.761,276.333 332.216,273.990 328.118 C 271.475 323.719,271.495 323.073,274.371 315.468 C 275.675 312.021,277.104 307.040,277.546 304.400 C 279.111 295.068,280.780 288.550,282.134 286.487 C 283.091 285.029,283.686 281.746,284.106 275.600 C 284.437 270.760,285.269 265.225,285.954 263.299 C 286.639 261.374,287.200 257.826,287.200 255.415 C 287.200 250.038,289.055 242.623,291.710 237.384 C 293.370 234.107,293.704 232.301,293.718 226.527 C 293.728 222.171,294.409 216.740,295.552 211.895 C 297.713 202.736,296.882 199.801,292.852 202.351 M357.208 232.991 C 356.578 235.385,351.831 240.000,350.000 240.000 C 348.660 240.000,347.735 241.566,345.924 246.905 C 345.197 249.047,343.750 251.814,342.708 253.053 C 341.666 254.292,340.260 257.352,339.583 259.853 C 338.905 262.354,338.010 265.677,337.592 267.237 C 337.175 268.798,335.751 271.287,334.428 272.768 C 332.399 275.041,331.150 278.441,331.036 282.000 C 330.884 286.760,332.267 287.915,333.671 284.200 C 338.520 271.362,349.758 277.934,346.317 291.596 C 344.781 297.700,343.984 298.006,331.950 297.120 C 323.031 296.463,322.910 296.572,320.448 307.468 C 320.166 308.716,319.101 310.516,318.082 311.468 C 314.689 314.640,313.600 317.874,313.600 324.786 C 313.600 331.907,312.289 336.161,309.661 337.567 C 308.741 338.060,306.900 340.699,305.570 343.432 C 304.241 346.164,302.370 349.714,301.413 351.321 C 299.942 353.788,299.837 354.440,300.734 355.521 C 302.821 358.035,341.294 356.819,353.200 353.863 C 357.833 352.712,367.035 351.913,389.400 350.719 L 400.000 350.153 400.000 324.367 L 400.000 298.582 396.200 298.020 C 386.632 296.605,386.964 286.400,396.578 286.400 L 400.000 286.400 400.000 264.000 L 400.000 241.600 396.430 241.600 C 394.466 241.600,390.956 240.847,388.630 239.927 C 384.948 238.470,383.222 238.303,375.307 238.636 C 363.434 239.137,361.122 238.491,359.238 234.147 L 357.786 230.800 357.208 232.991 M215.514 249.117 C 219.081 250.612,223.228 252.233,224.729 252.720 C 230.803 254.693,232.961 257.277,232.723 262.293 C 232.605 264.772,232.960 268.870,233.511 271.400 C 235.431 280.209,232.569 287.371,226.689 288.474 C 218.865 289.941,195.909 286.447,191.718 283.150 C 186.813 279.292,187.814 253.796,193.060 248.963 C 196.983 245.349,206.677 245.415,215.514 249.117 M184.321 313.859 C 187.866 318.627,186.171 336.141,181.892 338.944 C 176.699 342.347,173.307 335.714,173.725 322.969 C 174.108 311.276,179.166 306.926,184.321 313.859 M248.220 328.123 C 249.378 329.682,249.984 332.338,250.501 338.123 C 250.888 342.455,251.419 347.506,251.681 349.346 C 252.243 353.287,251.358 353.320,244.445 349.611 C 238.547 346.447,237.290 344.332,237.411 337.783 C 237.614 326.810,243.401 321.639,248.220 328.123 M15.928 344.728 C 19.726 348.526,19.774 361.100,16.012 366.383 C 10.937 373.511,3.754 361.432,6.098 349.711 C 7.198 344.208,12.647 341.447,15.928 344.728 M119.636 352.364 C 123.267 355.994,120.336 363.200,115.229 363.200 C 104.479 363.200,98.695 353.931,107.749 351.213 C 112.521 349.781,117.539 350.266,119.636 352.364 M229.600 360.400 C 229.600 361.067,228.889 361.600,228.000 361.600 C 227.120 361.600,226.400 361.219,226.400 360.753 C 226.400 360.287,226.760 360.128,227.200 360.400 C 227.640 360.672,228.000 360.513,228.000 360.047 C 228.000 359.581,228.360 359.200,228.800 359.200 C 229.240 359.200,229.600 359.740,229.600 360.400 M271.132 374.721 C 279.073 375.843,281.108 377.058,280.630 380.394 C 279.777 386.349,254.020 387.078,242.475 381.474 L 238.950 379.763 242.075 378.151 C 250.209 373.954,258.652 372.957,271.132 374.721 M129.853 381.959 C 138.984 385.216,137.552 391.669,127.270 393.596 C 119.583 395.037,113.857 390.290,116.851 384.957 C 119.107 380.937,123.893 379.833,129.853 381.959 " stroke="none" fill="#fdfdfd" fill-rule="evenodd"></path><path id="path2" d="M326.400 3.800 C 326.400 6.618,325.580 9.254,323.229 14.000 C 320.520 19.468,319.876 21.817,318.811 30.133 C 317.945 36.896,316.838 41.629,315.182 45.645 C 313.871 48.823,312.439 53.713,311.999 56.512 C 311.560 59.310,310.838 63.905,310.395 66.722 C 309.952 69.539,308.435 74.309,307.024 77.322 C 304.820 82.027,304.208 84.831,302.685 97.200 C 301.710 105.120,299.995 114.728,298.874 118.550 C 296.470 126.746,294.412 141.421,294.372 150.641 C 294.301 166.866,285.733 178.101,278.400 171.585 C 277.481 170.768,272.517 170.475,257.200 170.332 C 239.786 170.169,236.890 169.963,234.800 168.740 C 230.502 166.223,226.885 166.023,222.659 168.068 C 216.972 170.821,192.734 170.412,190.336 167.522 C 189.628 166.670,189.712 166.307,190.705 165.926 C 191.412 165.654,191.792 165.110,191.548 164.716 C 191.305 164.322,191.641 164.000,192.295 164.000 C 196.783 164.000,198.386 154.165,194.000 153.535 C 186.314 152.430,182.567 158.665,187.293 164.694 C 188.110 165.736,188.604 166.869,188.392 167.213 C 187.452 168.733,175.506 170.592,169.781 170.108 C 164.942 169.700,163.480 169.876,161.098 171.152 L 158.234 172.687 155.490 169.944 C 152.073 166.526,147.298 166.175,142.420 168.982 C 139.630 170.588,138.974 170.671,135.797 169.822 C 131.623 168.705,129.321 169.168,125.791 171.834 C 123.347 173.679,122.959 173.740,119.621 172.806 C 117.258 172.144,114.099 171.999,110.230 172.373 C 107.023 172.684,99.900 173.269,94.400 173.674 C 88.900 174.079,80.440 174.772,75.600 175.216 C 70.760 175.659,63.627 176.002,59.748 175.978 C 55.869 175.954,51.549 176.296,50.148 176.739 C 48.747 177.182,46.555 177.758,45.278 178.018 C 44.001 178.279,42.005 179.510,40.842 180.755 C 38.407 183.361,37.690 183.073,34.275 178.115 C 27.524 168.314,11.655 170.381,6.327 181.756 C 4.906 184.791,3.959 185.808,2.239 186.152 L 0.000 186.600 0.000 197.418 L -0.000 208.237 7.190 207.771 C 11.256 207.508,15.061 206.828,15.949 206.206 C 17.075 205.417,18.821 205.250,22.129 205.614 C 24.752 205.903,28.993 205.697,31.970 205.136 C 34.846 204.593,39.900 203.713,43.200 203.179 C 46.500 202.646,49.816 201.887,50.568 201.494 C 51.357 201.081,53.240 201.071,55.012 201.469 C 57.118 201.942,59.462 201.806,62.444 201.037 C 64.840 200.419,67.880 200.101,69.200 200.331 C 70.520 200.560,74.840 200.393,78.800 199.959 C 89.591 198.777,107.780 197.630,128.800 196.805 C 139.140 196.399,147.960 196.035,148.400 195.995 C 148.840 195.956,151.540 195.917,154.400 195.910 C 157.260 195.902,160.860 195.873,162.400 195.846 C 163.940 195.819,171.680 195.822,179.600 195.852 C 187.520 195.882,195.080 195.905,196.400 195.903 C 205.343 195.888,230.372 196.864,240.400 197.618 C 247.000 198.114,256.360 198.471,261.200 198.411 L 270.000 198.302 272.691 195.551 C 276.132 192.034,276.544 192.088,277.651 196.200 C 281.453 210.328,282.880 209.939,287.182 193.600 C 288.399 188.980,290.312 183.040,291.435 180.400 C 294.427 173.362,296.060 164.337,296.788 150.800 C 297.475 138.033,299.397 127.809,302.926 118.144 C 304.080 114.985,305.646 109.514,306.406 105.987 C 307.764 99.689,311.306 91.559,314.688 86.979 C 316.008 85.190,316.417 83.440,316.475 79.330 C 316.737 60.756,316.793 60.000,317.908 60.000 C 319.159 60.000,321.535 56.789,322.939 53.200 L 323.878 50.800 323.939 54.193 C 323.985 56.762,323.611 57.829,322.400 58.586 C 321.520 59.135,320.800 59.952,320.800 60.400 C 320.800 60.848,320.114 61.644,319.275 62.167 C 317.214 63.454,318.297 68.493,321.166 70.968 C 323.652 73.113,324.800 75.922,324.800 79.857 C 324.800 81.482,325.188 84.068,325.662 85.605 C 327.589 91.850,327.210 119.746,325.109 126.366 C 324.059 129.674,323.200 133.318,323.200 134.463 C 323.200 135.609,322.643 138.313,321.963 140.473 C 321.282 142.633,320.414 146.439,320.033 148.930 C 319.653 151.422,318.804 154.662,318.148 156.130 C 316.378 160.092,316.025 163.171,316.740 168.439 C 317.492 173.979,315.992 182.599,313.868 184.946 C 312.856 186.064,312.244 189.221,311.511 197.098 C 310.490 208.066,308.927 214.962,306.270 220.224 C 305.063 222.615,304.768 224.790,304.859 230.624 C 304.941 235.852,304.600 238.866,303.687 240.974 C 302.979 242.610,302.400 245.775,302.400 248.006 C 302.400 250.565,301.772 253.295,300.699 255.398 C 299.472 257.803,299.028 260.054,299.106 263.480 C 299.185 266.998,298.701 269.345,297.237 272.544 C 294.264 279.038,294.046 281.434,295.940 286.820 C 299.281 296.327,294.405 302.196,287.990 296.390 C 285.530 294.164,283.633 296.949,282.756 304.075 C 282.463 306.454,281.346 311.591,280.274 315.491 C 278.549 321.767,278.428 323.081,279.225 326.921 C 279.721 329.307,280.039 335.476,279.932 340.630 C 279.825 345.783,280.024 351.711,280.373 353.803 C 280.935 357.163,280.764 357.976,278.904 360.786 C 275.054 366.605,278.930 368.061,300.345 368.845 C 309.175 369.168,316.965 369.664,317.655 369.946 C 318.346 370.229,327.346 370.583,337.655 370.734 C 347.965 370.884,364.680 371.585,374.800 372.291 C 400.040 374.051,400.000 374.052,400.000 371.687 C 400.000 369.819,399.802 369.764,391.400 369.297 C 365.408 367.853,338.933 367.025,331.010 367.407 C 325.423 367.677,319.568 367.455,315.600 366.824 C 311.907 366.236,305.817 365.968,301.200 366.189 C 288.477 366.799,285.504 365.225,288.000 359.200 C 289.376 355.879,291.883 355.575,294.788 358.377 C 299.543 362.961,303.865 363.177,354.400 361.349 C 370.020 360.784,384.600 360.304,386.800 360.282 C 395.695 360.192,400.000 359.150,400.000 357.088 C 400.000 354.736,397.815 354.654,380.400 356.355 C 348.227 359.497,304.539 361.080,300.151 359.263 C 295.763 357.445,295.473 351.360,299.520 346.016 C 301.212 343.781,307.174 331.921,308.314 328.521 C 308.587 327.707,309.197 323.581,309.668 319.351 C 310.591 311.076,311.009 309.864,313.956 306.917 C 315.011 305.862,316.598 302.704,317.483 299.899 C 318.368 297.095,319.836 293.374,320.746 291.631 C 321.656 289.888,322.400 287.890,322.400 287.191 C 322.400 286.492,322.723 285.578,323.118 285.160 C 323.512 284.742,324.960 280.986,326.334 276.813 C 327.790 272.391,329.869 267.936,331.319 266.133 C 333.797 263.048,336.000 257.331,336.000 253.981 C 336.000 253.010,337.439 250.097,339.198 247.508 C 340.957 244.919,342.399 241.900,342.403 240.800 C 342.414 237.116,344.042 232.868,346.852 229.186 C 349.622 225.557,351.387 221.749,352.386 217.244 C 352.674 215.947,353.964 213.685,355.255 212.216 C 356.545 210.746,357.600 208.636,357.600 207.526 C 357.600 196.053,365.641 192.268,370.892 201.270 C 371.703 202.660,372.799 202.800,382.892 202.800 C 389.002 202.800,395.350 203.110,397.000 203.489 L 400.000 204.178 400.000 188.089 L 400.000 172.000 397.800 171.996 C 396.590 171.993,394.208 171.605,392.506 171.132 C 389.500 170.297,389.322 170.365,386.171 173.547 C 379.549 180.236,374.439 170.967,380.772 163.755 C 384.046 160.026,384.800 157.618,384.800 150.898 C 384.800 145.499,384.966 144.941,387.200 142.800 C 389.885 140.228,390.240 137.646,388.395 134.109 C 384.086 125.847,390.198 99.662,397.569 94.800 C 400.655 92.765,400.635 92.615,396.801 88.894 C 392.900 85.108,393.041 82.159,397.301 78.418 C 401.177 75.015,401.480 66.400,397.724 66.400 C 394.977 66.400,392.844 64.222,391.182 59.722 C 390.423 57.669,388.985 55.793,387.409 54.802 C 385.906 53.857,384.849 52.517,384.831 51.533 C 384.785 49.035,384.101 48.778,381.193 50.165 C 378.354 51.518,377.916 52.687,377.242 60.719 C 376.439 70.288,373.734 81.229,371.869 82.454 C 371.489 82.704,370.662 85.372,370.032 88.382 C 368.719 94.657,367.486 96.267,363.994 96.267 C 357.125 96.267,356.532 83.329,363.139 77.610 L 366.385 74.800 366.460 64.800 C 366.519 57.020,366.858 54.064,367.986 51.483 C 368.784 49.659,369.692 46.959,370.004 45.483 C 370.317 44.008,371.254 41.678,372.086 40.306 C 372.919 38.934,373.600 36.591,373.600 35.100 C 373.600 33.609,373.969 31.132,374.419 29.595 C 374.870 28.058,375.425 24.647,375.653 22.015 C 375.931 18.812,376.582 16.683,377.625 15.574 C 379.186 13.912,381.294 7.848,381.092 5.600 C 381.033 4.940,380.943 3.410,380.892 2.200 L 380.800 0.000 360.409 0.000 L 340.019 0.000 339.521 3.112 C 338.539 9.258,332.800 9.249,332.800 3.102 C 332.800 0.016,332.783 0.000,329.600 0.000 L 326.400 0.000 326.400 3.800 M351.996 11.400 C 351.994 12.973,351.215 14.948,350.025 16.400 L 348.058 18.800 348.029 14.333 C 347.998 9.485,348.308 8.800,350.533 8.800 C 351.656 8.800,351.999 9.411,351.996 11.400 M327.577 34.363 C 327.837 34.783,327.819 36.043,327.538 37.163 C 326.818 40.032,323.200 40.096,323.200 37.240 C 323.200 34.704,326.463 32.560,327.577 34.363 M385.296 46.701 C 384.728 48.964,385.485 50.935,386.178 48.995 C 386.375 48.442,386.956 48.241,387.468 48.549 C 388.164 48.965,388.174 48.815,387.507 47.954 C 387.016 47.319,386.447 46.263,386.243 45.606 C 386.010 44.860,385.655 45.270,385.296 46.701 M33.754 50.614 C 33.149 51.344,33.300 52.141,34.293 53.458 L 35.673 55.287 37.133 53.674 C 37.937 52.786,38.382 51.506,38.122 50.830 C 37.551 49.342,34.918 49.212,33.754 50.614 M337.384 69.800 C 337.813 70.350,338.244 73.140,338.341 76.000 C 338.438 78.860,339.017 84.075,339.627 87.589 C 340.635 93.397,340.613 94.161,339.385 95.989 C 338.642 97.095,337.846 99.980,337.617 102.400 C 337.178 107.028,335.878 108.013,335.200 104.231 C 334.980 103.004,334.209 101.100,333.487 100.000 C 330.571 95.559,330.928 79.402,334.073 73.477 C 334.693 72.309,335.200 70.779,335.200 70.077 C 335.200 68.550,336.301 68.411,337.384 69.800 M216.339 79.916 C 208.689 83.391,209.046 94.379,216.935 98.283 L 220.378 99.986 222.383 97.980 C 225.577 94.787,225.831 84.548,222.807 80.954 C 220.298 77.972,220.535 78.010,216.339 79.916 M203.489 102.002 C 202.904 103.525,203.797 107.200,204.752 107.200 C 205.670 107.200,206.685 102.708,206.012 101.620 C 205.275 100.427,204.020 100.617,203.489 102.002 M342.107 109.819 C 343.299 110.556,342.484 114.400,341.135 114.400 C 339.966 114.400,338.400 111.988,338.400 110.186 C 338.400 109.046,340.517 108.836,342.107 109.819 M376.169 109.891 C 377.353 110.790,377.390 111.143,376.447 112.490 C 374.893 114.709,375.798 118.342,378.173 119.424 C 379.845 120.186,380.055 120.678,379.593 122.759 C 378.953 125.642,378.960 129.304,379.616 134.800 L 380.094 138.800 376.697 140.205 C 372.268 142.036,372.400 142.486,372.403 125.476 C 372.406 108.869,372.781 107.317,376.169 109.891 M81.927 122.805 C 81.005 126.479,82.252 130.534,84.216 130.250 C 86.117 129.974,87.498 125.842,86.772 122.600 C 86.180 119.956,82.604 120.107,81.927 122.805 M55.370 143.311 C 48.667 147.603,49.002 155.501,56.009 158.404 C 59.521 159.859,62.071 158.514,63.147 154.639 C 65.811 145.045,61.796 139.196,55.370 143.311 M281.698 153.822 C 280.430 155.090,280.582 158.823,281.949 159.958 C 283.756 161.457,286.400 159.641,286.400 156.900 C 286.400 154.284,283.279 152.241,281.698 153.822 M14.830 198.237 C 14.126 198.941,12.790 196.663,13.363 195.735 C 13.615 195.328,14.165 195.608,14.584 196.357 C 15.003 197.107,15.114 197.953,14.830 198.237 M199.600 253.122 C 194.472 255.385,192.000 261.287,192.000 271.264 C 192.000 281.255,192.734 281.698,211.200 282.850 C 229.810 284.012,232.482 282.302,228.796 271.589 C 227.889 268.955,227.229 265.222,227.329 263.293 C 227.557 258.877,225.789 257.259,219.375 256.017 C 216.859 255.529,212.783 254.426,210.318 253.565 C 205.115 251.748,202.918 251.657,199.600 253.122 M337.976 285.046 C 337.174 289.321,337.758 291.566,339.746 291.849 C 342.007 292.171,343.370 289.660,343.046 285.766 C 342.685 281.418,338.761 280.861,337.976 285.046 M178.377 319.256 C 177.086 322.372,177.172 325.395,178.650 328.865 L 179.816 331.600 181.108 328.626 C 182.724 324.905,182.745 322.187,181.179 319.160 C 179.670 316.241,179.625 316.243,178.377 319.256 M241.302 333.222 C 239.663 337.494,241.038 343.200,243.705 343.200 C 247.954 343.200,248.122 332.654,243.881 332.157 C 242.533 331.999,241.628 332.373,241.302 333.222 M9.948 353.195 C 9.093 357.755,10.056 360.147,12.628 359.850 C 15.068 359.569,15.690 357.663,14.833 353.095 C 14.087 349.117,10.700 349.186,9.948 353.195 M111.733 354.933 C 110.652 356.015,111.233 358.402,112.600 358.495 C 116.338 358.748,117.115 358.253,116.419 356.060 C 115.908 354.451,112.932 353.735,111.733 354.933 M266.792 363.213 C 265.793 364.830,267.480 365.487,271.450 365.027 C 275.846 364.517,275.530 363.613,270.682 362.826 C 268.497 362.471,267.169 362.603,266.792 363.213 M257.356 378.489 C 253.767 380.577,259.350 382.570,263.044 380.520 L 264.888 379.497 262.806 378.548 C 260.288 377.401,259.245 377.390,257.356 378.489 M121.763 385.055 C 117.654 386.895,121.002 390.990,125.869 390.077 C 128.248 389.631,130.702 385.600,128.595 385.600 C 128.482 385.600,127.312 385.292,125.995 384.916 C 124.531 384.498,122.885 384.552,121.763 385.055 " stroke="none" fill="#7d512e" fill-rule="evenodd"></path><path id="path3" d="M324.000 3.303 C 324.000 5.934,323.448 7.217,321.286 9.610 C 318.159 13.072,317.181 16.751,316.400 28.000 C 315.785 36.851,314.860 40.369,312.359 43.372 C 310.361 45.772,309.946 47.727,308.851 59.898 C 308.145 67.747,307.973 68.310,305.662 70.298 C 302.811 72.751,300.808 79.350,300.786 86.368 C 300.756 95.576,298.676 105.624,296.283 108.122 C 293.470 111.058,292.973 114.874,292.811 134.800 C 292.672 151.933,292.359 153.806,290.058 151.264 C 287.581 148.527,286.396 138.741,286.555 122.349 C 286.704 107.026,285.770 102.483,282.691 103.562 C 282.137 103.756,281.939 103.278,282.184 102.340 C 282.659 100.522,284.000 100.271,284.000 102.000 C 284.000 102.680,284.717 103.200,285.656 103.200 C 286.913 103.200,287.250 102.769,287.056 101.408 C 286.691 98.855,284.614 98.787,281.707 101.233 C 279.930 102.728,279.200 103.001,279.200 102.169 C 279.200 99.922,276.939 98.827,275.322 100.290 C 274.526 101.010,273.512 101.600,273.069 101.600 C 272.627 101.600,271.302 102.680,270.126 104.000 C 267.561 106.879,264.677 107.121,262.993 104.600 L 261.790 102.800 259.978 104.400 C 258.729 105.503,258.061 105.699,257.826 105.029 C 257.566 104.287,257.138 104.275,256.008 104.981 C 254.265 106.069,251.656 104.450,252.329 102.697 C 253.088 100.717,251.206 100.712,250.304 102.692 C 249.807 103.782,248.963 104.505,248.429 104.300 C 247.370 103.894,245.090 106.157,245.821 106.888 C 246.456 107.522,243.120 111.200,241.910 111.200 C 241.359 111.200,240.708 110.569,240.463 109.798 C 239.608 107.103,237.160 106.300,235.141 108.052 C 234.145 108.915,232.761 109.442,232.065 109.221 C 231.369 109.001,229.727 109.378,228.416 110.058 C 226.876 110.858,225.932 110.996,225.749 110.448 C 225.594 109.982,224.597 109.600,223.533 109.600 C 221.003 109.600,221.045 108.313,223.595 107.673 C 230.218 106.010,229.543 75.098,222.828 72.521 C 216.401 70.055,206.511 79.780,206.436 88.641 C 206.398 93.095,204.102 95.200,199.280 95.200 C 197.295 95.200,197.026 96.193,196.355 106.000 C 196.054 110.400,195.663 114.249,195.486 114.553 C 194.970 115.439,190.440 112.536,189.945 111.002 C 189.696 110.233,188.697 109.404,187.723 109.159 C 186.750 108.915,185.483 107.654,184.909 106.358 C 183.907 104.093,180.800 102.956,180.800 104.854 C 180.800 105.343,180.118 105.491,179.205 105.202 C 177.949 104.803,177.719 104.978,178.122 106.028 C 178.798 107.790,176.918 108.887,175.132 107.772 C 173.981 107.053,173.031 107.430,169.962 109.821 C 166.718 112.348,165.968 112.623,164.501 111.825 C 162.721 110.858,155.150 109.400,152.400 109.495 C 144.279 109.777,141.637 110.281,138.006 112.243 C 132.842 115.033,133.055 115.072,128.000 110.400 C 123.678 106.405,121.915 105.801,117.800 106.904 C 115.599 107.494,115.267 111.510,117.324 112.661 C 118.113 113.103,118.448 113.921,118.154 114.687 C 117.538 116.294,115.468 115.625,113.004 113.023 C 108.272 108.025,95.437 112.864,98.457 118.507 C 99.121 119.746,99.056 120.450,98.185 121.467 C 97.557 122.200,96.804 123.471,96.512 124.290 C 95.849 126.149,93.600 124.650,93.600 122.349 C 93.600 121.549,93.280 120.697,92.889 120.455 C 92.497 120.213,91.932 119.022,91.631 117.808 C 90.779 114.361,86.761 111.085,84.148 111.706 C 81.402 112.360,77.600 114.534,77.600 115.452 C 77.600 116.108,76.179 119.586,74.204 123.762 C 73.745 124.731,73.152 125.464,72.885 125.392 C 72.618 125.319,71.590 125.709,70.600 126.258 C 69.371 126.939,68.800 126.978,68.800 126.381 C 68.800 125.899,68.466 125.712,68.058 125.964 C 67.155 126.522,66.097 123.538,66.796 122.407 C 67.251 121.670,65.984 121.289,63.400 121.385 C 62.137 121.432,62.120 120.600,63.360 119.360 C 64.107 118.613,64.018 118.400,62.960 118.400 C 62.212 118.400,61.600 118.060,61.600 117.645 C 61.600 117.230,59.800 117.013,57.600 117.162 C 54.153 117.397,53.600 117.231,53.600 115.964 C 53.600 113.520,52.042 113.339,49.853 115.529 C 48.714 116.668,46.989 117.600,46.019 117.600 C 44.916 117.600,43.916 118.348,43.346 119.600 C 42.844 120.700,41.887 121.600,41.217 121.600 C 40.548 121.600,40.000 121.922,40.000 122.315 C 40.000 122.718,38.593 122.673,36.777 122.212 C 34.125 121.539,33.299 121.625,32.114 122.697 C 30.189 124.439,27.367 124.527,28.800 122.800 C 29.625 121.806,29.538 121.600,28.290 121.600 C 27.462 121.600,26.311 122.359,25.732 123.287 C 24.778 124.814,24.208 124.923,19.705 124.441 C 15.311 123.970,14.557 124.100,13.242 125.554 C 11.396 127.594,10.400 127.653,10.400 125.724 C 10.400 123.845,7.595 121.261,6.374 122.016 C 5.865 122.331,4.417 121.826,3.156 120.894 C 0.648 119.040,-0.000 118.836,0.000 119.903 C 0.000 120.290,1.080 121.053,2.400 121.600 C 5.273 122.790,5.373 123.380,3.000 125.139 C 2.010 125.874,1.740 126.250,2.400 125.976 C 3.060 125.702,2.790 126.193,1.800 127.067 C -0.142 128.782,-0.626 132.414,1.000 133.070 C 1.800 133.393,1.800 133.486,1.000 133.537 C -0.813 133.651,-0.414 186.404,1.400 186.388 C 3.546 186.369,4.424 185.519,6.493 181.461 C 12.199 170.269,27.594 168.415,34.275 178.115 C 37.690 183.073,38.407 183.361,40.842 180.755 C 42.005 179.510,44.001 178.279,45.278 178.018 C 46.555 177.758,48.747 177.182,50.148 176.739 C 51.549 176.296,55.869 175.954,59.748 175.978 C 63.627 176.002,70.760 175.659,75.600 175.216 C 80.440 174.772,88.900 174.079,94.400 173.674 C 99.900 173.269,107.023 172.684,110.230 172.373 C 114.099 171.999,117.258 172.144,119.621 172.806 C 122.959 173.740,123.347 173.679,125.791 171.834 C 129.321 169.168,131.623 168.705,135.797 169.822 C 138.974 170.671,139.630 170.588,142.420 168.982 C 147.298 166.175,152.073 166.526,155.490 169.944 L 158.234 172.687 161.098 171.152 C 163.480 169.876,164.942 169.700,169.781 170.108 C 175.506 170.592,187.452 168.733,188.392 167.213 C 188.604 166.869,188.110 165.736,187.293 164.694 C 182.567 158.665,186.314 152.430,194.000 153.535 C 198.386 154.165,196.783 164.000,192.295 164.000 C 191.641 164.000,191.305 164.322,191.548 164.716 C 191.792 165.110,191.412 165.654,190.705 165.926 C 189.712 166.307,189.628 166.670,190.336 167.522 C 192.734 170.412,216.972 170.821,222.659 168.068 C 226.885 166.023,230.502 166.223,234.800 168.740 C 236.890 169.963,239.786 170.169,257.200 170.332 C 272.517 170.475,277.481 170.768,278.400 171.585 C 285.733 178.101,294.301 166.866,294.372 150.641 C 294.412 141.421,296.470 126.746,298.874 118.550 C 299.995 114.728,301.710 105.120,302.685 97.200 C 304.208 84.831,304.820 82.027,307.024 77.322 C 308.435 74.309,309.935 69.629,310.358 66.922 C 310.780 64.215,311.503 59.620,311.962 56.712 C 312.422 53.803,313.871 48.823,315.182 45.645 C 316.838 41.629,317.945 36.896,318.811 30.133 C 319.876 21.817,320.520 19.468,323.229 14.000 C 326.681 7.032,327.671 0.000,325.200 0.000 C 324.327 0.000,324.000 0.900,324.000 3.303 M112.000 8.800 C 108.721 12.079,111.633 23.895,115.439 22.756 C 119.306 21.600,122.123 15.338,120.661 11.147 C 119.249 7.094,114.887 5.913,112.000 8.800 M73.739 40.252 C 71.506 42.629,71.549 43.622,73.995 46.067 C 76.032 48.105,78.512 47.790,80.188 45.280 C 82.967 41.118,77.172 36.598,73.739 40.252 M31.789 46.600 C 28.328 49.228,28.904 55.101,32.896 57.897 C 38.286 61.672,44.707 54.678,41.480 48.547 C 39.851 45.451,34.672 44.411,31.789 46.600 M38.122 50.830 C 38.382 51.506,37.937 52.786,37.133 53.674 L 35.673 55.287 34.293 53.458 C 33.300 52.141,33.149 51.344,33.754 50.614 C 34.918 49.212,37.551 49.342,38.122 50.830 M146.812 67.976 C 142.278 76.745,145.017 86.400,152.040 86.400 C 157.473 86.400,158.832 84.302,158.715 76.092 C 158.584 66.853,150.310 61.212,146.812 67.976 M222.807 80.954 C 225.831 84.548,225.577 94.787,222.383 97.980 L 220.378 99.986 216.935 98.283 C 209.046 94.379,208.689 83.391,216.339 79.916 C 220.535 78.010,220.298 77.972,222.807 80.954 M331.602 82.600 C 331.329 84.470,331.440 88.880,331.848 92.400 L 332.591 98.800 332.695 89.000 C 332.804 78.827,332.453 76.770,331.602 82.600 M186.400 82.183 C 183.274 83.373,183.254 86.560,186.359 88.771 C 189.662 91.122,192.800 90.315,192.800 87.113 C 192.800 83.355,189.665 80.940,186.400 82.183 M338.237 83.737 C 337.987 84.692,338.098 87.162,338.484 89.227 C 338.870 91.291,338.970 93.840,338.706 94.890 C 338.139 97.148,338.820 97.405,339.921 95.348 C 340.436 94.384,340.361 91.898,339.695 87.948 C 339.040 84.063,338.534 82.602,338.237 83.737 M397.651 87.951 C 396.700 88.554,396.682 88.894,397.549 89.939 C 399.068 91.769,400.000 91.488,400.000 89.200 C 400.000 87.065,399.485 86.791,397.651 87.951 M161.944 94.379 C 161.033 94.744,159.735 95.888,159.059 96.921 C 155.191 102.837,158.685 107.603,166.476 107.040 C 172.138 106.630,172.136 106.632,172.611 101.683 C 173.079 96.815,166.726 92.465,161.944 94.379 M396.706 95.429 C 389.723 101.334,384.348 126.349,388.395 134.109 C 390.240 137.646,389.885 140.228,387.200 142.800 C 384.966 144.941,384.800 145.499,384.800 150.898 C 384.800 157.618,384.046 160.026,380.772 163.755 C 374.439 170.967,379.549 180.236,386.171 173.547 C 389.322 170.365,389.500 170.297,392.506 171.132 C 394.208 171.605,396.590 171.993,397.800 171.996 L 400.000 172.000 400.000 154.288 C 400.000 138.892,399.831 136.453,398.705 135.630 C 397.324 134.619,397.788 129.600,399.264 129.600 C 399.690 129.600,400.000 122.031,400.000 111.600 C 400.000 101.700,399.730 93.613,399.400 93.629 C 399.070 93.645,397.858 94.455,396.706 95.429 M278.877 95.075 C 278.600 95.523,278.764 96.130,279.240 96.425 C 280.470 97.185,281.264 96.144,280.237 95.117 C 279.662 94.542,279.215 94.529,278.877 95.075 M130.909 96.360 C 129.648 97.042,128.143 97.600,127.562 97.600 C 126.438 97.600,126.048 98.581,125.215 103.501 C 124.692 106.587,124.700 106.598,126.945 105.999 C 128.185 105.668,131.720 105.326,134.800 105.239 C 140.064 105.091,145.600 103.295,145.600 101.736 C 145.600 97.663,135.398 93.929,130.909 96.360 M238.168 100.251 C 237.146 102.913,239.106 106.894,240.404 104.794 C 240.678 104.350,241.779 104.146,242.851 104.341 C 244.403 104.622,244.800 104.356,244.800 103.035 C 244.800 100.030,239.161 97.663,238.168 100.251 M206.012 101.620 C 206.685 102.708,205.670 107.200,204.752 107.200 C 203.797 107.200,202.904 103.525,203.489 102.002 C 204.020 100.617,205.275 100.427,206.012 101.620 M219.285 107.200 C 219.678 107.200,220.000 107.661,220.000 108.223 C 220.000 108.786,220.683 109.739,221.518 110.341 C 222.991 111.403,222.978 111.495,221.096 113.377 C 217.246 117.226,212.000 113.884,212.000 107.582 C 212.000 102.903,213.165 102.151,216.126 104.918 C 217.470 106.173,218.891 107.200,219.285 107.200 M0.000 111.200 L 0.000 116.800 2.772 116.800 C 4.725 116.800,5.797 116.327,6.400 115.200 C 6.871 114.320,7.951 113.600,8.800 113.600 C 10.434 113.600,12.000 111.418,12.000 109.141 C 12.000 106.864,9.450 105.652,4.600 105.625 L 0.000 105.600 0.000 111.200 M93.783 110.550 C 94.278 112.033,96.000 112.279,96.000 110.867 C 96.000 110.170,95.430 109.600,94.733 109.600 C 94.037 109.600,93.609 110.028,93.783 110.550 M155.158 117.316 C 155.354 117.499,154.591 118.573,153.461 119.702 L 151.408 121.756 149.704 119.927 C 146.694 116.697,151.844 114.231,155.158 117.316 M1.818 119.200 C 2.937 120.080,4.438 120.800,5.154 120.800 C 6.208 120.800,6.293 120.495,5.600 119.200 C 5.026 118.128,3.925 117.600,2.264 117.600 L -0.216 117.600 1.818 119.200 M376.000 121.217 C 376.000 122.748,376.360 124.000,376.800 124.000 C 377.240 124.000,377.613 124.810,377.628 125.800 C 377.656 127.577,377.671 127.575,378.800 125.600 C 380.546 122.545,380.269 120.379,378.000 119.346 C 376.075 118.469,376.000 118.539,376.000 121.217 M31.554 120.335 C 30.701 120.959,30.187 121.654,30.413 121.880 C 30.639 122.106,31.719 121.603,32.812 120.763 C 35.089 119.013,33.910 118.612,31.554 120.335 M86.772 122.600 C 87.498 125.842,86.117 129.974,84.216 130.250 C 82.252 130.534,81.005 126.479,81.927 122.805 C 82.604 120.107,86.180 119.956,86.772 122.600 M63.941 127.375 C 65.250 131.130,58.707 135.238,57.291 131.549 C 57.027 130.861,56.414 130.544,55.929 130.844 C 55.373 131.187,55.166 130.836,55.371 129.895 C 55.549 129.073,56.083 128.477,56.558 128.570 C 57.032 128.664,58.066 127.881,58.855 126.831 C 60.732 124.331,62.963 124.570,63.941 127.375 M11.989 133.400 C 11.969 137.395,11.141 139.347,9.902 138.319 C 7.970 136.715,8.732 131.200,10.886 131.200 C 11.571 131.200,11.996 132.048,11.989 133.400 M62.342 143.708 C 65.244 147.397,63.991 156.909,60.388 158.551 C 56.652 160.253,50.400 155.809,50.400 151.452 C 50.400 144.678,58.813 139.222,62.342 143.708 M286.400 156.900 C 286.400 159.641,283.756 161.457,281.949 159.958 C 280.582 158.823,280.430 155.090,281.698 153.822 C 283.279 152.241,286.400 154.284,286.400 156.900 M292.412 358.600 C 293.101 360.030,294.014 361.830,294.439 362.600 C 295.113 363.819,294.836 364.000,292.295 364.000 C 290.472 364.000,288.959 363.474,288.265 362.600 C 287.242 361.312,287.171 361.357,287.376 363.153 C 287.687 365.869,291.304 366.664,301.200 366.189 C 305.817 365.968,311.907 366.236,315.600 366.824 C 319.568 367.455,325.423 367.677,331.010 367.407 C 338.933 367.025,365.408 367.853,391.400 369.297 L 400.000 369.775 400.000 364.376 L 400.000 358.976 395.400 359.609 C 392.870 359.957,389.000 360.260,386.800 360.282 C 384.600 360.304,370.020 360.784,354.400 361.349 C 303.367 363.195,298.935 362.955,294.461 358.103 C 291.817 355.237,290.898 355.459,292.412 358.600 " stroke="none" fill="#2c333d" fill-rule="evenodd"></path><path id="path4" d="M332.800 3.102 C 332.800 7.058,334.248 8.399,337.110 7.095 C 338.260 6.572,339.205 5.571,339.211 4.872 C 339.217 4.172,339.439 2.790,339.704 1.800 C 340.153 0.124,339.933 0.000,336.493 0.000 L 332.800 0.000 332.800 3.102 M324.600 34.464 C 323.830 34.913,323.200 36.162,323.200 37.240 C 323.200 40.096,326.818 40.032,327.538 37.163 C 328.354 33.911,327.266 32.911,324.600 34.464 M322.965 53.080 C 322.146 56.017,319.202 60.000,317.850 60.000 C 316.806 60.000,316.733 61.024,316.475 79.330 C 316.417 83.440,316.008 85.190,314.688 86.979 C 311.306 91.559,307.764 99.689,306.406 105.987 C 305.646 109.514,304.080 114.985,302.926 118.144 C 299.397 127.809,297.475 138.033,296.788 150.800 C 296.060 164.337,294.427 173.362,291.435 180.400 C 290.312 183.040,288.399 188.980,287.182 193.600 C 282.880 209.939,281.453 210.328,277.651 196.200 C 276.544 192.088,276.132 192.034,272.691 195.551 L 270.000 198.302 261.200 198.411 C 256.360 198.471,247.000 198.114,240.400 197.618 C 230.372 196.864,205.343 195.888,196.400 195.903 C 195.080 195.905,187.520 195.882,179.600 195.852 C 171.680 195.822,163.940 195.819,162.400 195.846 C 160.860 195.873,157.260 195.902,154.400 195.910 C 151.540 195.917,148.840 195.956,148.400 195.995 C 147.960 196.035,139.140 196.399,128.800 196.805 C 107.780 197.630,89.591 198.777,78.800 199.959 C 74.840 200.393,70.520 200.560,69.200 200.331 C 67.880 200.101,64.840 200.419,62.444 201.037 C 59.462 201.806,57.118 201.942,55.012 201.469 C 53.240 201.071,51.357 201.081,50.568 201.494 C 49.816 201.887,46.500 202.646,43.200 203.179 C 39.900 203.713,34.846 204.593,31.970 205.136 C 28.993 205.697,24.752 205.903,22.129 205.614 C 18.821 205.250,17.075 205.417,15.949 206.206 C 15.061 206.828,11.256 207.508,7.190 207.771 L -0.000 208.237 -0.000 220.118 L 0.000 232.000 1.855 232.000 C 2.875 232.000,5.485 231.496,7.655 230.881 C 16.051 228.499,111.203 227.057,134.000 228.967 C 140.160 229.482,146.820 229.786,148.800 229.641 C 156.121 229.106,163.433 229.222,220.400 230.775 C 243.646 231.409,261.042 232.255,271.001 233.237 C 283.899 234.509,289.745 228.924,290.721 214.400 C 291.426 203.913,291.756 202.585,293.819 201.931 C 297.156 200.871,297.583 203.284,295.570 211.820 C 294.410 216.735,293.728 222.151,293.718 226.527 C 293.704 232.301,293.370 234.107,291.710 237.384 C 289.055 242.623,287.200 250.038,287.200 255.415 C 287.200 257.826,286.639 261.374,285.954 263.299 C 285.269 265.225,284.437 270.760,284.106 275.600 C 283.686 281.746,283.091 285.029,282.134 286.487 C 280.780 288.550,279.111 295.068,277.546 304.400 C 277.104 307.040,275.675 312.021,274.371 315.468 C 271.495 323.073,271.475 323.719,273.990 328.118 C 276.333 332.216,276.495 334.761,274.651 338.459 C 272.261 343.249,272.291 348.825,274.719 351.441 C 277.873 354.839,277.593 357.968,274.200 357.248 C 265.153 355.329,262.896 355.986,261.566 360.926 C 259.849 367.302,263.981 370.613,272.673 369.825 C 276.108 369.513,278.431 369.759,280.721 370.675 C 283.008 371.590,287.834 372.102,297.371 372.443 C 307.343 372.798,312.238 373.338,316.385 374.540 C 320.879 375.842,323.223 376.059,328.385 375.649 C 331.913 375.369,344.520 375.693,356.400 376.369 C 389.617 378.258,400.000 378.106,400.000 375.730 L 400.000 373.860 382.200 372.875 C 372.410 372.333,360.442 371.540,355.604 371.112 C 350.766 370.683,340.477 370.407,332.740 370.498 C 325.003 370.589,318.207 370.375,317.637 370.023 C 317.068 369.671,309.332 369.130,300.447 368.820 C 278.926 368.071,275.042 366.622,278.904 360.786 C 280.764 357.976,280.935 357.163,280.373 353.803 C 280.024 351.711,279.825 345.783,279.932 340.630 C 280.039 335.476,279.721 329.307,279.225 326.921 C 278.428 323.081,278.549 321.767,280.274 315.491 C 281.346 311.591,282.463 306.454,282.756 304.075 C 283.633 296.949,285.530 294.164,287.990 296.390 C 294.405 302.196,299.281 296.327,295.940 286.820 C 294.046 281.434,294.264 279.038,297.237 272.544 C 298.701 269.345,299.185 266.998,299.106 263.480 C 299.028 260.054,299.472 257.803,300.699 255.398 C 301.772 253.295,302.400 250.565,302.400 248.006 C 302.400 245.775,302.979 242.610,303.687 240.974 C 304.600 238.866,304.941 235.852,304.859 230.624 C 304.768 224.790,305.063 222.615,306.270 220.224 C 308.927 214.962,310.490 208.066,311.511 197.098 C 312.244 189.221,312.856 186.064,313.868 184.946 C 315.992 182.599,317.492 173.979,316.740 168.439 C 316.025 163.171,316.378 160.092,318.148 156.130 C 318.804 154.662,319.653 151.422,320.033 148.930 C 320.414 146.439,321.282 142.633,321.963 140.473 C 322.643 138.313,323.200 135.609,323.200 134.463 C 323.200 133.318,324.059 129.674,325.109 126.366 C 327.210 119.746,327.589 91.850,325.662 85.605 C 325.188 84.068,324.800 81.482,324.800 79.857 C 324.800 75.922,323.652 73.113,321.166 70.968 C 318.297 68.493,317.214 63.454,319.275 62.167 C 320.114 61.644,320.800 60.909,320.800 60.536 C 320.800 60.162,321.547 59.252,322.459 58.513 C 323.740 57.476,324.059 56.443,323.859 53.985 C 323.609 50.907,323.579 50.877,322.965 53.080 M312.226 123.882 C 312.830 133.182,310.216 138.724,306.600 135.810 C 304.157 133.841,306.088 118.470,309.038 116.404 C 311.331 114.797,311.691 115.641,312.226 123.882 M303.525 146.659 C 304.206 149.002,305.491 151.578,306.381 152.383 C 308.339 154.155,308.494 157.795,306.676 159.302 C 304.042 161.486,303.052 165.475,303.625 171.589 C 304.273 178.503,303.026 185.385,300.553 188.541 L 298.800 190.779 298.400 185.190 C 298.180 182.115,298.277 177.980,298.615 176.000 C 298.954 174.020,299.519 166.081,299.871 158.357 C 300.436 145.969,300.910 142.400,301.990 142.400 C 302.153 142.400,302.844 144.317,303.525 146.659 M13.363 195.735 C 12.790 196.663,14.126 198.941,14.830 198.237 C 15.114 197.953,15.003 197.107,14.584 196.357 C 14.165 195.608,13.615 195.328,13.363 195.735 M361.079 197.174 C 359.404 198.348,357.600 203.716,357.600 207.526 C 357.600 208.636,356.545 210.746,355.255 212.216 C 353.964 213.685,352.674 215.947,352.386 217.244 C 351.387 221.749,349.622 225.557,346.852 229.186 C 344.042 232.868,342.414 237.116,342.403 240.800 C 342.399 241.900,340.957 244.919,339.198 247.508 C 337.439 250.097,336.000 253.010,336.000 253.981 C 336.000 257.331,333.797 263.048,331.319 266.133 C 329.869 267.936,327.790 272.391,326.334 276.813 C 324.960 280.986,323.512 284.742,323.118 285.160 C 322.723 285.578,322.400 286.492,322.400 287.191 C 322.400 287.890,321.656 289.888,320.746 291.631 C 319.836 293.374,318.368 297.095,317.483 299.899 C 316.598 302.704,315.011 305.862,313.956 306.917 C 311.009 309.864,310.591 311.076,309.668 319.351 C 309.197 323.581,308.587 327.707,308.314 328.521 C 307.174 331.921,301.212 343.781,299.520 346.016 C 295.473 351.360,295.763 357.445,300.151 359.263 C 304.539 361.080,348.227 359.497,380.400 356.355 C 387.000 355.711,394.110 355.187,396.200 355.192 C 399.932 355.200,400.000 355.155,400.000 352.677 L 400.000 350.153 389.400 350.719 C 367.035 351.913,357.833 352.712,353.200 353.863 C 341.294 356.819,302.821 358.035,300.734 355.521 C 299.837 354.440,299.942 353.788,301.413 351.321 C 302.370 349.714,304.241 346.164,305.570 343.432 C 306.900 340.699,308.741 338.060,309.661 337.567 C 312.289 336.161,313.600 331.907,313.600 324.786 C 313.600 317.874,314.689 314.640,318.082 311.468 C 319.101 310.516,320.166 308.716,320.448 307.468 C 322.910 296.572,323.031 296.463,331.950 297.120 C 343.984 298.006,344.781 297.700,346.317 291.596 C 349.758 277.934,338.520 271.362,333.671 284.200 C 332.267 287.915,330.884 286.760,331.036 282.000 C 331.150 278.441,332.399 275.041,334.428 272.768 C 335.751 271.287,337.175 268.798,337.592 267.237 C 338.010 265.677,338.905 262.354,339.583 259.853 C 340.260 257.352,341.666 254.292,342.708 253.053 C 343.750 251.814,345.197 249.047,345.924 246.905 C 347.735 241.566,348.660 240.000,350.000 240.000 C 351.831 240.000,356.578 235.385,357.208 232.991 L 357.786 230.800 359.238 234.147 C 361.122 238.491,363.434 239.137,375.307 238.636 C 383.222 238.303,384.948 238.470,388.630 239.927 C 390.956 240.847,394.466 241.600,396.430 241.600 L 400.000 241.600 400.000 222.927 L 400.000 204.255 395.496 203.247 C 392.398 202.553,388.309 202.414,382.395 202.800 C 373.213 203.400,370.914 202.879,369.997 199.992 C 368.983 196.796,363.908 195.193,361.079 197.174 M196.400 246.973 C 191.733 248.102,190.194 252.068,188.780 266.612 C 187.151 283.374,191.469 286.932,215.311 288.474 C 231.721 289.535,236.488 285.062,233.511 271.400 C 232.960 268.870,232.605 264.772,232.723 262.293 C 232.961 257.277,230.803 254.693,224.729 252.720 C 223.228 252.233,219.081 250.612,215.514 249.117 C 209.135 246.445,201.925 245.636,196.400 246.973 M210.318 253.565 C 212.783 254.426,216.859 255.529,219.375 256.017 C 225.789 257.259,227.557 258.877,227.329 263.293 C 227.229 265.222,227.889 268.955,228.796 271.589 C 232.482 282.302,229.810 284.012,211.200 282.850 C 192.734 281.698,192.000 281.255,192.000 271.264 C 192.000 255.492,198.328 249.378,210.318 253.565 M343.046 285.766 C 343.370 289.660,342.007 292.171,339.746 291.849 C 337.758 291.566,337.174 289.321,337.976 285.046 C 338.761 280.861,342.685 281.418,343.046 285.766 M391.378 287.645 C 386.827 290.833,389.722 297.062,396.200 298.020 L 400.000 298.582 400.000 292.491 L 400.000 286.400 396.578 286.400 C 394.696 286.400,392.356 286.960,391.378 287.645 M175.559 312.843 C 173.368 315.261,172.829 329.750,174.743 334.762 C 177.245 341.314,182.613 341.243,184.908 334.628 C 189.476 321.467,182.492 305.192,175.559 312.843 M181.179 319.160 C 182.745 322.187,182.724 324.905,181.108 328.626 L 179.816 331.600 178.650 328.865 C 177.172 325.395,177.086 322.372,178.377 319.256 C 179.625 316.243,179.670 316.241,181.179 319.160 M240.433 326.881 C 234.308 333.006,236.485 345.341,244.445 349.611 C 251.358 353.320,252.243 353.287,251.681 349.346 C 251.419 347.506,250.888 342.455,250.501 338.123 C 249.532 327.277,245.046 322.268,240.433 326.881 M246.603 335.684 C 247.468 340.085,246.267 343.200,243.705 343.200 C 241.038 343.200,239.663 337.494,241.302 333.222 C 242.371 330.437,245.894 332.073,246.603 335.684 M8.460 345.211 C 3.191 350.897,5.943 367.731,12.254 368.424 C 16.833 368.926,20.181 359.378,18.412 350.860 C 16.869 343.425,12.443 340.913,8.460 345.211 M14.833 353.095 C 15.690 357.663,15.068 359.569,12.628 359.850 C 10.056 360.147,9.093 357.755,9.948 353.195 C 10.700 349.186,14.087 349.117,14.833 353.095 M107.749 351.213 C 100.652 353.343,101.624 359.186,109.540 361.979 C 114.845 363.851,117.151 363.564,119.529 360.739 C 125.180 354.023,117.927 348.158,107.749 351.213 M116.419 356.060 C 117.115 358.253,116.338 358.748,112.600 358.495 C 111.233 358.402,110.652 356.015,111.733 354.933 C 112.932 353.735,115.908 354.451,116.419 356.060 M228.000 360.047 C 228.000 360.513,227.640 360.672,227.200 360.400 C 226.760 360.128,226.400 360.287,226.400 360.753 C 226.400 361.219,227.120 361.600,228.000 361.600 C 228.889 361.600,229.600 361.067,229.600 360.400 C 229.600 359.740,229.240 359.200,228.800 359.200 C 228.360 359.200,228.000 359.581,228.000 360.047 M274.650 363.973 C 275.008 364.307,273.568 364.781,271.450 365.027 C 267.480 365.487,265.793 364.830,266.792 363.213 C 267.395 362.238,273.417 362.820,274.650 363.973 M250.400 375.141 C 247.540 375.910,243.794 377.264,242.075 378.151 L 238.950 379.763 242.475 381.474 C 250.825 385.527,270.898 386.646,277.485 383.425 C 289.500 377.550,267.023 370.676,250.400 375.141 M262.806 378.548 L 264.888 379.497 263.044 380.520 C 260.589 381.882,258.011 381.859,256.854 380.465 C 255.022 378.258,259.210 376.910,262.806 378.548 M120.024 381.823 C 114.866 384.434,114.893 390.466,120.074 393.004 C 125.386 395.605,135.292 392.385,135.838 387.879 C 136.410 383.157,125.583 379.010,120.024 381.823 M128.595 385.600 C 128.708 385.600,128.800 386.484,128.800 387.564 C 128.800 391.383,120.738 391.283,120.163 387.457 C 119.842 385.327,122.849 384.017,125.995 384.916 C 127.312 385.292,128.482 385.600,128.595 385.600 M24.176 391.639 C 16.948 394.679,18.363 400.000,26.400 400.000 L 32.800 400.000 32.800 396.924 C 32.800 392.078,28.866 389.668,24.176 391.639 " stroke="none" fill="#a1b4c2" fill-rule="evenodd"></path></g></svg>